<?xml version="1.0" encoding="UTF-8" standalone="no"?>
<!-- Created with Inkscape (http://www.inkscape.org/) -->

<svg
   width="240mm"
   height="120mm"
   viewBox="0 0 240 120"
   version="1.1"
   id="svg8"
   inkscape:version="1.1.2 (0a00cf5339, 2022-02-04)"
   sodipodi:docname="lem1_4to3.svg"
   xmlns:inkscape="http://www.inkscape.org/namespaces/inkscape"
   xmlns:sodipodi="http://sodipodi.sourceforge.net/DTD/sodipodi-0.dtd"
   xmlns:xlink="http://www.w3.org/1999/xlink"
   xmlns="http://www.w3.org/2000/svg"
   xmlns:svg="http://www.w3.org/2000/svg"
   xmlns:rdf="http://www.w3.org/1999/02/22-rdf-syntax-ns#"
   xmlns:cc="http://creativecommons.org/ns#"
   xmlns:dc="http://purl.org/dc/elements/1.1/">
  <defs
     id="defs2">
    <marker
       style="overflow:visible"
       id="Arrow1Lend"
       refX="0"
       refY="0"
       orient="auto"
       inkscape:stockid="Arrow1Lend"
       inkscape:isstock="true">
      <path
         transform="matrix(-0.8,0,0,-0.8,-10,0)"
         style="fill:context-stroke;fill-rule:evenodd;stroke:context-stroke;stroke-width:1pt"
         d="M 0,0 5,-5 -12.5,0 5,5 Z"
         id="path20140" />
    </marker>
    <marker
       style="overflow:visible"
       id="marker886"
       refX="0"
       refY="0"
       orient="auto"
       inkscape:stockid="Arrow1Lend"
       inkscape:isstock="true">
      <path
         transform="matrix(-0.8,0,0,-0.8,-10,0)"
         style="fill:context-stroke;fill-rule:evenodd;stroke:context-stroke;stroke-width:1pt"
         d="M 0,0 5,-5 -12.5,0 5,5 Z"
         id="path884" />
    </marker>
    <linearGradient
       inkscape:collect="always"
       xlink:href="#linearGradient45178"
       id="linearGradient45180"
       x1="91.302719"
       y1="232.49196"
       x2="100.14596"
       y2="232.49196"
       gradientUnits="userSpaceOnUse"
       gradientTransform="translate(-6.8161395,1.0081469)" />
    <linearGradient
       inkscape:collect="always"
       id="linearGradient45178">
      <stop
         style="stop-color:#0500f8;stop-opacity:1;"
         offset="0"
         id="stop45174" />
      <stop
         style="stop-color:#0500f8;stop-opacity:0;"
         offset="1"
         id="stop45176" />
    </linearGradient>
    <linearGradient
       inkscape:collect="always"
       xlink:href="#linearGradient45178"
       id="linearGradient928"
       gradientUnits="userSpaceOnUse"
       gradientTransform="translate(-5.8465625,1.9337953)"
       x1="91.302719"
       y1="232.49196"
       x2="100.14596"
       y2="232.49196" />
  </defs>
  <sodipodi:namedview
     id="base"
     pagecolor="#ffffff"
     bordercolor="#666666"
     borderopacity="1.0"
     inkscape:pageopacity="0.0"
     inkscape:pageshadow="2"
     inkscape:zoom="0.99437388"
     inkscape:cx="284.6012"
     inkscape:cy="182.52692"
     inkscape:document-units="mm"
     inkscape:current-layer="layer1"
     showgrid="false"
     showborder="true"
     width="200mm"
     showguides="true"
     inkscape:guide-bbox="true"
     inkscape:window-width="1920"
     inkscape:window-height="1016"
     inkscape:window-x="0"
     inkscape:window-y="27"
     inkscape:window-maximized="1"
     inkscape:pagecheckerboard="0">
    <inkscape:grid
       type="xygrid"
       id="grid815"
       units="mm"
       spacingx="10"
       spacingy="10"
       empspacing="4"
       dotted="false" />
  </sodipodi:namedview>
  <metadata
     id="metadata5">
    <rdf:RDF>
      <cc:Work
         rdf:about="">
        <dc:format>image/svg+xml</dc:format>
        <dc:type
           rdf:resource="http://purl.org/dc/dcmitype/StillImage" />
        <dc:title />
      </cc:Work>
    </rdf:RDF>
  </metadata>
  <g
     inkscape:label="Layer 1"
     inkscape:groupmode="layer"
     id="layer1"
     transform="translate(0,-177)">
    <path
       style="fill:none;stroke:#0500f8;stroke-width:0.265;stroke-linecap:butt;stroke-linejoin:miter;stroke-miterlimit:4;stroke-dasharray:2.12, 0.53, 0.265, 0.53;stroke-dashoffset:0.053;stroke-opacity:1"
       d="m 58.620459,226.46583 c -5.781926,-3.37651 -13.035695,-4.65604 -17.167714,1.66353 -1.882225,2.87869 -2.379983,6.20666 -5.401717,8.26145 -1.951104,1.32675 -8.775444,1.58497 -9.373579,2.54198 -0.91145,1.45832 -1.180862,3.62553 -1.429864,5.08398 -1.993522,11.67637 12.078237,21.51609 22.536404,20.73024 4.152249,-0.31201 6.30293,-2.99496 9.850193,-4.60735 2.215018,-1.00682 4.60071,-1.30759 6.990467,-1.58874 4.981426,-0.58605 11.095235,2.26861 15.728542,0.31775 2.75771,-1.16114 4.397737,-4.88721 4.924692,-7.64875 1.963362,-10.28912 -2.004914,-21.77661 -12.707098,-25.12106 -2.823406,-0.88232 -6.826888,-1.29826 -9.850194,-0.79437 -1.390087,0.23168 -2.759168,1.40247 -4.100132,1.16134 z"
       id="path890" />
    <path
       style="fill:none;stroke:#ff0000;stroke-width:0.264583px;stroke-linecap:butt;stroke-linejoin:miter;stroke-opacity:1"
       d="m 41.785943,206.95376 c -17.402003,-1.26191 -17.001204,9.22092 -22.928799,22.15384 -2.893912,6.31398 -9.069992,12.86956 -6.354966,20.33589 1.701023,4.67782 6.065247,8.75364 10.326821,11.12119 1.660502,0.92251 3.532259,1.1584 4.766226,2.70086 7.110232,8.88781 0.02209,6.50161 9.982266,12.16376 3.982609,2.26403 6.407629,3.96954 10.918121,4.29172 8.967139,0.64051 36.918495,-3.29672 44.008148,-9.37358 6.404707,-5.48977 7.96493,-15.09227 7.96493,-23.09068 0,-5.1363 0.93802,-13.17647 -1.906493,-17.95277 -1.25495,-2.10722 -16.956744,-8.99674 -20.459546,-10.94275 -4.228719,-2.34929 -7.340047,-6.212 -11.756687,-8.42033 -4.782293,-2.39116 -11.528655,-3.33636 -16.840657,-3.33636 -2.157868,0 -6.154542,1.08063 -7.719364,0.34921 z"
       id="path894" />
    <text
       xml:space="preserve"
       style="font-size:4.9389px;line-height:1.25;font-family:sans-serif;stroke:#f00005;stroke-width:0.264583;stroke-opacity:1"
       x="48.941528"
       y="204.32385"
       id="text3428"><tspan
         sodipodi:role="line"
         id="tspan3426"
         style="fill:#ff0000;fill-opacity:1;stroke:#ff0005;stroke-width:0.264583;stroke-opacity:1"
         x="48.941528"
         y="204.32385">$\cl{\inv f(F)}$</tspan></text>
    <text
       xml:space="preserve"
       style="font-size:4.9389px;line-height:1.25;font-family:sans-serif;stroke:url(#linearGradient928);stroke-width:0.264583"
       x="85.046196"
       y="235.93901"
       id="text7062"><tspan
         id="tspan7060"
         style="stroke:#0100ff;stroke-width:0.264583;stroke-opacity:1"
         x="85.046196"
         y="235.93901"
         sodipodi:role="line">$\inv f(F)$</tspan></text>
    <path
       style="fill:none;stroke:#000000;stroke-width:0.43944;stroke-linecap:butt;stroke-linejoin:miter;stroke-miterlimit:4;stroke-dasharray:none;stroke-opacity:1;marker-end:url(#Arrow1Lend)"
       d="m 104.16962,230.76012 c 10.35089,-14.79587 34.33753,-10.64321 45.81452,-0.59193"
       id="path20135" />
    <text
       xml:space="preserve"
       style="font-size:4.9389px;line-height:1.25;font-family:sans-serif;stroke-width:0.264583"
       x="121.59331"
       y="219.50166"
       id="text22555"><tspan
         sodipodi:role="line"
         id="tspan22553"
         style="stroke:#000000;stroke-width:0.264583;stroke-opacity:1"
         x="121.59331"
         y="219.50166">$f$</tspan></text>
    <path
       style="fill:none;stroke:#ff0000;stroke-width:0.264583px;stroke-linecap:butt;stroke-linejoin:miter;stroke-opacity:1"
       d="m 189.29134,222.08129 c -7.86327,-2.46485 -15.53096,0.63848 -21.1332,6.24066 -2.26396,2.26394 -4.17857,4.96465 -6.83157,6.83158 -5.30204,3.73109 -15.58944,4.9252 -14.45755,13.98093 0.75217,6.01777 12.89444,5.44439 14.29867,7.78483 2.3629,3.93827 -1.38659,7.96605 3.49524,10.4857 1.05228,0.54311 2.08904,1.12227 3.17746,1.58873 7.56703,3.24302 15.67326,-3.43039 23.5134,-2.22423 6.35919,0.97833 13.59259,9.59945 18.74715,2.38311 3.08185,-4.31457 4.527,-10.2495 2.38311,-15.25191 -1.07441,-2.50696 -2.28744,-4.34946 -2.54199,-7.14934 -0.38022,-4.18203 2.91153,-7.84704 2.3831,-12.07444 -0.94705,-7.57639 -7.22164,-10.97875 -14.1398,-12.55106 -3.69367,-0.83947 -5.77112,-1.46949 -8.89402,-0.0446 z"
       id="path26735" />
    <path
       style="fill:none;stroke:#0500f8;stroke-width:0.26499999;stroke-linecap:butt;stroke-linejoin:miter;stroke-miterlimit:4;stroke-dasharray:none;stroke-dashoffset:0;stroke-opacity:1"
       d="m 182.00854,233.35156 c -0.25659,0.55068 -0.62785,1.0361 -0.91276,1.5703 -0.72979,1.36834 -1.47915,2.86514 -2.38314,4.13073 -1.78768,2.5028 -5.64205,3.54006 -6.83157,6.51383 -2.89855,7.24633 3.39614,8.50778 8.73807,10.64458 3.60668,1.44269 5.19112,5.84509 10.00907,5.24285 9.18624,-1.14828 19.83418,-17.33727 11.12119,-24.30775 -2.09039,-1.67234 -5.23454,-2.39605 -7.78482,-2.85974 -3.99535,-0.72643 -8.00026,-0.27021 -11.95604,-0.9348 z"
       id="path26737" />
    <text
       xml:space="preserve"
       style="font-size:4.9389px;line-height:1.25;font-family:sans-serif;stroke-width:0.264583"
       x="169.38097"
       y="218.8075"
       id="text32143"><tspan
         sodipodi:role="line"
         id="tspan32141"
         style="fill:#ff0000;fill-opacity:1;stroke:#ff0005;stroke-width:0.264583;stroke-opacity:1"
         x="169.38097"
         y="218.8075">$f(\cl{\inv f(F)})$</tspan></text>
    <text
       xml:space="preserve"
       style="font-size:4.9389px;line-height:1.25;font-family:sans-serif;stroke-width:0.264583"
       x="181.74593"
       y="231.68172"
       id="text34127"><tspan
         sodipodi:role="line"
         id="tspan34125"
         style="stroke:#0500f8;stroke-width:0.264583;stroke-opacity:1"
         x="181.74593"
         y="231.68172">$F=\cl{F}$</tspan></text>
    <circle
       style="fill:#00ff4e;fill-opacity:1;fill-rule:evenodd;stroke:#00ff4e;stroke-width:0.264999;stroke-linejoin:round;stroke-miterlimit:4;stroke-dasharray:none;stroke-dashoffset:0;stroke-opacity:1"
       id="path66887"
       cx="50.802757"
       cy="270.3472"
       r="1" />
    <text
       xml:space="preserve"
       style="font-size:4.9389px;line-height:1.25;font-family:sans-serif;fill:#00ff4e;fill-opacity:1;stroke:#00ff4e;stroke-width:0.264583;stroke-opacity:1"
       x="53.487526"
       y="274.00696"
       id="text69667"><tspan
         sodipodi:role="line"
         id="tspan69665"
         style="fill:#00ff4e;fill-opacity:1;stroke:#00ff4e;stroke-width:0.264583;stroke-opacity:1"
         x="53.487526"
         y="274.00696">$d$</tspan></text>
    <circle
       style="fill:#00ff4e;fill-opacity:1;fill-rule:evenodd;stroke:#00ff4e;stroke-width:0.264999;stroke-linejoin:round;stroke-miterlimit:4;stroke-dasharray:none;stroke-dashoffset:0;stroke-opacity:1"
       id="path66887-7"
       cx="183.48706"
       cy="249.91776"
       r="1" />
    <text
       xml:space="preserve"
       style="font-size:4.9389px;line-height:1.25;font-family:sans-serif;fill:#00ff4e;fill-opacity:1;stroke:#00ff4e;stroke-width:0.264583;stroke-opacity:1"
       x="176.41014"
       y="246.627"
       id="text69667-5"><tspan
         sodipodi:role="line"
         id="tspan69665-3"
         style="fill:#00ff4e;fill-opacity:1;stroke:#00ff4e;stroke-width:0.264583;stroke-opacity:1"
         x="176.41014"
         y="246.627">$f(d)$</tspan></text>
    <path
       style="fill:none;stroke:#ff00cc;stroke-width:0.255189px;stroke-linecap:butt;stroke-linejoin:miter;stroke-opacity:1;marker-end:url(#Arrow1Lend)"
       d="M 50.858923,270.13651 C 124.73505,270.02066 181.22322,251.18474 181.22322,251.18474"
       id="path61158" />
    <text
       xml:space="preserve"
       style="font-size:4.9389px;line-height:1.25;font-family:sans-serif;stroke-width:0.264583"
       x="124.84567"
       y="271.29376"
       id="text63970"><tspan
         sodipodi:role="line"
         id="tspan63968"
         style="stroke-width:0.264583"
         x="124.84567"
         y="271.29376">$f$</tspan></text>
  </g>
</svg>
